<?xml version="1.0" encoding="UTF-8" standalone="no" ?>
<!DOCTYPE svg PUBLIC "-//W3C//DTD SVG 1.1//EN" "http://www.w3.org/Graphics/SVG/1.1/DTD/svg11.dtd">
<svg xmlns="http://www.w3.org/2000/svg" xmlns:xlink="http://www.w3.org/1999/xlink" version="1.1" width="492" height="432" viewBox="4 34 492 432" xml:space="preserve">
<desc>Created with Fabric.js 4.6.0</desc>
<defs>
</defs>
<g transform="matrix(0.67 0 0 0.66 250 250)" id="IzKbvDHQNnRpFUJMowiC1"  >
<g style="" vector-effect="non-scaling-stroke"   >
		<g transform="matrix(1.86 0 0 1.29 260.4 9.04)" id="M1_LEixHzDcnTjYI29CQd"  >
<path style="stroke: rgb(1,1,0); stroke-width: 1; stroke-dasharray: none; stroke-linecap: butt; stroke-dashoffset: 0; stroke-linejoin: miter; stroke-miterlimit: 4; fill: rgb(1,1,0); fill-rule: nonzero; opacity: 1;" vector-effect="non-scaling-stroke"  transform=" translate(0, 0)" d="M 0 -90.02229 C 19.23077 -90.02229 34.83835 -49.692299999999996 34.83835 0 C 34.83835 49.69231 19.23077 90.02229 0 90.02229 C -19.23077 90.02229 -34.83835 49.692299999999996 -34.83835 0 C -34.83835 -49.69231 -19.23077 -90.02229 0 -90.02229 z" stroke-linecap="round" />
</g>
		<g transform="matrix(1.77 0 0 1.87 -12.86 0)" id="iyDP63v-kThovKNWeya2B"  >
<path style="stroke: rgb(61,116,255); stroke-width: 1; stroke-dasharray: none; stroke-linecap: butt; stroke-dashoffset: 0; stroke-linejoin: miter; stroke-miterlimit: 4; fill: rgb(61,116,255); fill-rule: nonzero; opacity: 1;" vector-effect="non-scaling-stroke"  transform=" translate(-170.85, -170.85)" d="M 170.84727 0 C 265.15496 0 341.69454 76.53958 341.69454 170.84727 C 341.69454 265.15496 265.15496 341.69454 170.84727 341.69454 C 76.53958000000002 341.69454 0 265.15496 0 170.84727 C 0 76.53958000000002 76.53958 0 170.84727 0 z" stroke-linecap="round" />
</g>
		<g transform="matrix(1.86 0 0 1.85 -250.6 9.04)" id="QJTy3EA467Tk6SJqDwZo1"  >
<path style="stroke: rgb(1,1,0); stroke-width: 1; stroke-dasharray: none; stroke-linecap: butt; stroke-dashoffset: 0; stroke-linejoin: miter; stroke-miterlimit: 4; fill: rgb(1,1,0); fill-rule: nonzero; opacity: 1;" vector-effect="non-scaling-stroke"  transform=" translate(0, 0)" d="M 0 -90.02229 C 19.23077 -90.02229 34.83835 -49.692299999999996 34.83835 0 C 34.83835 49.69231 19.23077 90.02229 0 90.02229 C -19.23077 90.02229 -34.83835 49.692299999999996 -34.83835 0 C -34.83835 -49.69231 -19.23077 -90.02229 0 -90.02229 z" stroke-linecap="round" />
</g>
		<g transform="matrix(1.67 0.25 -0.22 1.69 -281.89 -133.03)" id="06KyOVaKkoY-FaVX9j37T"  >
<path style="stroke: rgb(1,1,0); stroke-width: 1; stroke-dasharray: none; stroke-linecap: butt; stroke-dashoffset: 0; stroke-linejoin: miter; stroke-miterlimit: 4; fill: rgb(1,1,0); fill-rule: nonzero; opacity: 1;" vector-effect="non-scaling-stroke"  transform=" translate(0, 0)" d="M -17.55853 -17.55853 L 17.55853 -17.55853 L 17.55853 17.55853 L -17.55853 17.55853 z" stroke-linecap="round" />
</g>
		<g transform="matrix(1.71 -0.06 0.06 1.87 -280.12 144.08)" id="Upx2IoWhPkgiFXzAymFWK"  >
<path style="stroke: rgb(1,1,0); stroke-width: 1; stroke-dasharray: none; stroke-linecap: butt; stroke-dashoffset: 0; stroke-linejoin: miter; stroke-miterlimit: 4; fill: rgb(1,1,0); fill-rule: nonzero; opacity: 1;" vector-effect="non-scaling-stroke"  transform=" translate(0, 0)" d="M -17.55853 -17.55853 L 17.55853 -17.55853 L 17.55853 17.55853 L -17.55853 17.55853 z" stroke-linecap="round" />
</g>
		<g transform="matrix(1.59 0 0 1.92 -304.36 5.72)" id="hd1mvnGUAydnO8Kgv2kcq"  >
<path style="stroke: rgb(36,35,34); stroke-width: 1; stroke-dasharray: none; stroke-linecap: butt; stroke-dashoffset: 0; stroke-linejoin: miter; stroke-miterlimit: 4; fill: rgb(36,35,34); fill-rule: nonzero; opacity: 1;" vector-effect="non-scaling-stroke"  transform=" translate(0, 0)" d="M 0 -90.02229 C 19.23077 -90.02229 34.83835 -49.692299999999996 34.83835 0 C 34.83835 49.69231 19.23077 90.02229 0 90.02229 C -19.23077 90.02229 -34.83835 49.692299999999996 -34.83835 0 C -34.83835 -49.69231 -19.23077 -90.02229 0 -90.02229 z" stroke-linecap="round" />
</g>
		<g transform="matrix(1.76 0 0 1.87 106.06 -106.33)" id="JT1lGOzBS4A_idkGhCVAJ"  >
<filter id="SVGID_4" y="-20%" height="140%" x="-20%" width="140%" >
	<feGaussianBlur in="SourceAlpha" stdDeviation="0"></feGaussianBlur>
	<feOffset dx="0" dy="0" result="oBlur" ></feOffset>
	<feFlood flood-color="rgb(0,0,0)" flood-opacity="1"/>
	<feComposite in2="oBlur" operator="in" />
	<feMerge>
		<feMergeNode></feMergeNode>
		<feMergeNode in="SourceGraphic"></feMergeNode>
	</feMerge>
</filter>
<path style="stroke: rgb(1,1,0); stroke-width: 1; stroke-dasharray: none; stroke-linecap: butt; stroke-dashoffset: 0; stroke-linejoin: miter; stroke-miterlimit: 4; fill: rgb(7,13,29); fill-rule: nonzero; opacity: 1;filter: url(#SVGID_4);" vector-effect="non-scaling-stroke"  transform=" translate(0, 0)" d="M -143.77469 4.03116 L -103.75574 -8.3612 L 143.77469 1.8368599999999997 L 97.52797999999999 8.36121 z" stroke-linecap="round" />
</g>
		<g transform="matrix(1.77 0 0 1.87 -113 -196.51)" id="oG-mt1WPYiON77cYx9r2i"  >
<filter id="SVGID_1" y="-20%" height="140%" x="-20%" width="140%" >
	<feGaussianBlur in="SourceAlpha" stdDeviation="0"></feGaussianBlur>
	<feOffset dx="0" dy="0" result="oBlur" ></feOffset>
	<feFlood flood-color="rgb(32,32,32)" flood-opacity="1"/>
	<feComposite in2="oBlur" operator="in" />
	<feMerge>
		<feMergeNode></feMergeNode>
		<feMergeNode in="SourceGraphic"></feMergeNode>
	</feMerge>
</filter>
<path style="stroke: rgb(32,32,32); stroke-width: 1; stroke-dasharray: none; stroke-linecap: butt; stroke-dashoffset: 0; stroke-linejoin: miter; stroke-miterlimit: 4; fill: rgb(32,32,32); fill-rule: nonzero; opacity: 1;filter: url(#SVGID_1);" vector-effect="non-scaling-stroke"  transform=" translate(0, 0)" d="M -19.50948 -37.13264 L 19.509469999999997 -52.18281 L 19.509469999999997 40.347849999999994 L -19.50948 52.18279999999999 z" stroke-linecap="round" />
</g>
		<g transform="matrix(1.72 0 0 1.81 141.09 -198.56)" id="NycKQ5wC6kXkIBJ7GE3Du"  >
<filter id="SVGID_3" y="-20%" height="140%" x="-20%" width="140%" >
	<feGaussianBlur in="SourceAlpha" stdDeviation="0"></feGaussianBlur>
	<feOffset dx="0" dy="0" result="oBlur" ></feOffset>
	<feFlood flood-color="rgb(1,1,2)" flood-opacity="1"/>
	<feComposite in2="oBlur" operator="in" />
	<feMerge>
		<feMergeNode></feMergeNode>
		<feMergeNode in="SourceGraphic"></feMergeNode>
	</feMerge>
</filter>
<path style="stroke: rgb(1,1,2); stroke-width: 1; stroke-dasharray: none; stroke-linecap: butt; stroke-dashoffset: 0; stroke-linejoin: miter; stroke-miterlimit: 4; fill: rgb(1,1,2); fill-rule: nonzero; opacity: 1;filter: url(#SVGID_3);" vector-effect="non-scaling-stroke"  transform=" translate(0, 0)" d="M -127.11901 -52.6828 L 124.88935000000001 -23.81212 L 127.11900000000001 52.682809999999996 L -127.11901999999999 42.5201 z" stroke-linecap="round" />
</g>
</g>
</g>
</svg>